<?xml version="1.0" encoding="utf-8"?>
<!-- Generator: Adobe Illustrator 23.0.0, SVG Export Plug-In . SVG Version: 6.00 Build 0)  -->
<svg version="1.1" id="Layer_1" xmlns="http://www.w3.org/2000/svg" xmlns:xlink="http://www.w3.org/1999/xlink" x="0px" y="0px"
	 viewBox="0 0 29.3 15.6" style="enable-background:new 0 0 29.3 15.6;" xml:space="preserve">
<style type="text/css">
	.st0{fill:#16487D;}
	.st1{fill:#00467F;}
	.st2{fill:#007E9D;}
	.st3{fill:#1A2A57;}
	.st4{fill:#F2F2F2;}
	.st5{fill:#77C043;}
	.st6{fill:#FFFFFF;}
</style>
<g>
	<rect x="7.1" class="st2" width="22.2" height="1.6"/>
	<path class="st2" d="M3.9,0H0.8C0.4,0,0,0.4,0,0.8s0.4,0.8,0.8,0.8h3.1c0.4,0,0.8-0.4,0.8-0.8S4.3,0,3.9,0z"/>
	<rect x="7.1" y="7" class="st2" width="22.2" height="1.6"/>
	<path class="st2" d="M3.9,7H0.8C0.4,7,0,7.4,0,7.8c0,0.4,0.4,0.8,0.8,0.8h3.1c0.4,0,0.8-0.4,0.8-0.8C4.6,7.4,4.3,7,3.9,7z"/>
	<rect x="7.1" y="14" class="st2" width="22.2" height="1.6"/>
	<path class="st2" d="M3.9,14H0.8C0.4,14,0,14.4,0,14.8c0,0.4,0.4,0.8,0.8,0.8h3.1c0.4,0,0.8-0.4,0.8-0.8C4.6,14.4,4.3,14,3.9,14z"
		/>
</g>
</svg>
