<?xml version="1.0" encoding="utf-8"?>
<!-- Generator: Adobe Illustrator 23.0.0, SVG Export Plug-In . SVG Version: 6.00 Build 0)  -->
<svg version="1.1" xmlns="http://www.w3.org/2000/svg" xmlns:xlink="http://www.w3.org/1999/xlink" x="0px" y="0px"
	 viewBox="0 0 33.6 37.9" style="enable-background:new 0 0 33.6 37.9;" xml:space="preserve">
<style type="text/css">
	.st0{fill:url(#SVGID_1_);}
	.st1{fill:url(#SVGID_2_);}
	.st2{fill:#FFFFFF;}
	.st3{fill:url(#SVGID_3_);}
	.st4{fill:url(#SVGID_4_);}
	.st5{fill:url(#SVGID_5_);}
	.st6{fill:url(#SVGID_6_);}
	.st7{fill:url(#SVGID_7_);}
	.st8{fill:url(#SVGID_8_);}
	.st9{fill:url(#SVGID_9_);}
	.st10{fill:url(#SVGID_10_);}
	.st11{fill:url(#SVGID_11_);}
	.st12{fill:url(#SVGID_12_);}
	.st13{fill:url(#SVGID_13_);}
	.st14{fill:url(#SVGID_14_);}
	.st15{fill:#F2F2F2;}
	.st16{fill:#007E9D;}
	.st17{opacity:0.1;fill:#00467F;}
	.st18{fill:#FFFFFF;stroke:#007E9D;stroke-miterlimit:10;}
	.st19{fill:none;stroke:#007E9D;stroke-width:2;stroke-miterlimit:10;}
	.st20{fill:#B3B3B3;}
	.st21{fill:none;stroke:#B3B3B3;stroke-width:0.75;stroke-miterlimit:10;}
	.st22{fill:none;stroke:#B3B3B3;stroke-width:0.5;stroke-miterlimit:10;}
	.st23{fill:#16487D;}
	.st24{opacity:0.1;fill:#F7931E;}
	.st25{fill:#FFFFFF;stroke:#006837;stroke-miterlimit:10;}
	.st26{fill:#009245;}
	.st27{opacity:0.4;fill:#FAA61A;}
	.st28{fill:#00467F;}
	.st29{opacity:0.1;fill:#22BBAD;}
	.st30{opacity:0.1;fill:#77C043;}
	.st31{fill:#E6E6E6;}
	.st32{fill:#CCCCCC;}
	.st33{fill:#808080;}
	.st34{fill:#E4414B;}
	.st35{fill:#FAA61A;}
	.st36{fill:#77C043;}
	.st37{opacity:0.5;fill:#007E9D;}
	.st38{opacity:6.000000e-02;fill:#007E9D;}
	.st39{fill:none;stroke:#007E9D;stroke-width:0.5989;stroke-miterlimit:10;}
	.st40{opacity:0.1;fill:#E4414B;}
	.st41{fill:none;stroke:#00467F;stroke-width:0.2687;stroke-miterlimit:10;}
	.st42{fill:none;stroke:#B3B3B3;stroke-width:0.5374;stroke-miterlimit:10;}
	.st43{fill:#666666;}
	.st44{fill:none;stroke:#007E9D;stroke-miterlimit:10;}
	.st45{opacity:0.5;fill:none;stroke:#77C043;stroke-width:2;stroke-miterlimit:10;}
	.st46{opacity:0.6;fill:#77C043;}
	.st47{opacity:0.2;fill:none;stroke:#77C043;stroke-width:2;stroke-miterlimit:10;}
	.st48{opacity:0.79;}
	.st49{opacity:0.4;fill:#77C043;}
	.st50{fill:#22BBAD;}
	.st51{fill:url(#SVGID_15_);}
	.st52{fill:url(#SVGID_16_);}
	.st53{fill:#4D4D4D;}
	.st54{fill:url(#SVGID_17_);}
	.st55{fill:url(#SVGID_18_);}
	.st56{fill:none;stroke:#00467F;stroke-miterlimit:10;}
	.st57{opacity:0.1;fill:#F15A24;}
	.st58{fill:#999999;}
	.st59{fill:#1A2A57;}
	.st60{fill:none;stroke:#007E9D;stroke-width:0.6295;stroke-miterlimit:10;}
	.st61{fill:none;stroke:#007E9D;stroke-width:0.5;stroke-miterlimit:10;}
	.st62{fill:url(#SVGID_19_);}
	.st63{fill:url(#SVGID_20_);}
	.st64{opacity:0.5;}
	.st65{opacity:0.2;}
	.st66{fill:url(#SVGID_21_);}
	.st67{fill:url(#SVGID_22_);}
	.st68{fill:url(#SVGID_23_);}
	.st69{fill:url(#SVGID_24_);}
	.st70{fill:url(#SVGID_25_);}
	.st71{fill:url(#SVGID_26_);}
	.st72{fill:url(#SVGID_27_);}
	.st73{fill:url(#SVGID_28_);}
	.st74{fill:url(#SVGID_29_);}
	.st75{fill:url(#SVGID_30_);}
	.st76{opacity:0.6;fill:#1A1A1A;}
</style>
<g id="background">
</g>
<g id="header">
</g>
<g id="content">
</g>
<g id="modal_screen">
</g>
<g id="modal">
</g>
<g id="grid">
</g>
<g id="final_icons">
	<g>
		<path class="st16" d="M23.8,19.3c0.1,0,0.2,0,0.3-0.1c0.3-0.1,0.5-0.5,0.5-0.8V1.2c0-0.4-0.2-0.7-0.5-0.8c-0.3-0.1-0.7-0.1-1,0.2
			l-5.3,5.3h-3.5c-0.5,0-0.8,0.4-0.8,0.8v6.2c0,0.5,0.4,0.8,0.8,0.8h3.5l5.3,5.3C23.4,19.2,23.6,19.3,23.8,19.3z M14.7,12.6V7h3.7
			l5.2-5.2v16.1l-5.2-5.2H14.7z"/>
		<path class="st16" d="M26.3,15.9l0.7,0.9c0.1-0.1,3.1-2.6,3.1-7s-3-6.9-3.1-7l-0.7,0.9c0,0,2.7,2.3,2.7,6.1
			C29,13.6,26.3,15.9,26.3,15.9z"/>
		<path class="st16" d="M32.5,9.8c0,5.6-3.9,8.9-3.9,9l0.7,0.9c0.2-0.1,4.3-3.7,4.3-9.8c0-6.1-4.1-9.7-4.3-9.8l-0.7,0.9
			C28.6,0.9,32.5,4.2,32.5,9.8z"/>
		<path class="st16" d="M17.1,15.2H5.9L0,20.5v16.9c0,0.3,0.2,0.5,0.5,0.5h16.6c0.3,0,0.5-0.2,0.5-0.5V15.7
			C17.5,15.4,17.3,15.2,17.1,15.2z M5.7,16.9v3.2c0,0.2-0.1,0.3-0.3,0.3H1.8L5.7,16.9z M16.4,36.8H1.1V21.5h4.2
			c0.8,0,1.4-0.6,1.4-1.4v-3.8h9.6V36.8z"/>
		<rect x="3.2" y="23.8" class="st16" width="11.3" height="1.1"/>
		<rect x="3.2" y="28" class="st16" width="11.3" height="1.1"/>
		<rect x="3.2" y="32.2" class="st16" width="11.3" height="1.1"/>
		<path class="st16" d="M23.8,24.4l0.4,1l4-1.7c-1.6,3.9-5.1,6.7-9.2,7.6l0.2,1.1c4.5-0.9,8.2-4.1,10-8.3l1.4,4.2l1-0.3l-2.1-6
			L23.8,24.4z"/>
		<path class="st16" d="M12.1,6.7l-0.4-1.1C7.5,7.2,4.2,10.7,3,15l1.1,0.3C5.2,11.3,8.2,8.1,12.1,6.7z"/>
	</g>
</g>
</svg>
