<?xml version="1.0" encoding="utf-8"?>
<!-- Generator: Adobe Illustrator 23.0.0, SVG Export Plug-In . SVG Version: 6.00 Build 0)  -->
<svg version="1.1" id="Layer_1" xmlns="http://www.w3.org/2000/svg" xmlns:xlink="http://www.w3.org/1999/xlink" x="0px" y="0px"
	 viewBox="0 0 33.6 37.9" style="enable-background:new 0 0 33.6 37.9;" xml:space="preserve">
<style type="text/css">
	.st0{fill:#16487D;}
	.st1{fill:#00467F;}
	.st2{fill:#007E9D;}
	.st3{fill:#1A2A57;}
	.st4{fill:#F2F2F2;}
	.st5{fill:#77C043;}
	.st6{fill:#FFFFFF;}
</style>
<g>
	<path class="st6" d="M23.8,19.3c0.1,0,0.2,0,0.3-0.1c0.3-0.1,0.5-0.5,0.5-0.8V1.2c0-0.4-0.2-0.7-0.5-0.8c-0.3-0.1-0.7-0.1-1,0.2
		l-5.3,5.3h-3.5c-0.5,0-0.8,0.4-0.8,0.8v6.2c0,0.5,0.4,0.8,0.8,0.8h3.5l5.3,5.3C23.4,19.2,23.6,19.3,23.8,19.3z M14.7,12.6V7h3.7
		l5.2-5.2v16.1l-5.2-5.2H14.7z"/>
	<path class="st6" d="M26.3,15.9l0.7,0.9c0.1-0.1,3.1-2.6,3.1-7s-3-6.9-3.1-7l-0.7,0.9c0,0,2.7,2.3,2.7,6.1
		C29,13.6,26.3,15.9,26.3,15.9z"/>
	<path class="st6" d="M32.5,9.8c0,5.6-3.9,8.9-3.9,9l0.7,0.9c0.2-0.1,4.3-3.7,4.3-9.8c0-6.1-4.1-9.7-4.3-9.8l-0.7,0.9
		C28.6,0.9,32.5,4.2,32.5,9.8z"/>
	<path class="st6" d="M17.1,15.2H5.9L0,20.5v16.9c0,0.3,0.2,0.5,0.5,0.5h16.6c0.3,0,0.5-0.2,0.5-0.5V15.7
		C17.5,15.4,17.3,15.2,17.1,15.2z M5.7,16.9v3.2c0,0.2-0.1,0.3-0.3,0.3H1.8L5.7,16.9z M16.4,36.8H1.1V21.5h4.2
		c0.8,0,1.4-0.6,1.4-1.4v-3.8h9.6V36.8z"/>
	<rect x="3.2" y="23.8" class="st6" width="11.3" height="1.1"/>
	<rect x="3.2" y="28" class="st6" width="11.3" height="1.1"/>
	<rect x="3.2" y="32.2" class="st6" width="11.3" height="1.1"/>
	<path class="st6" d="M23.8,24.4l0.4,1l4-1.7c-1.6,3.9-5.1,6.7-9.2,7.6l0.2,1.1c4.5-0.9,8.2-4.1,10-8.3l1.4,4.2l1-0.3l-2.1-6
		L23.8,24.4z"/>
	<path class="st6" d="M12.1,6.7l-0.4-1.1C7.5,7.2,4.2,10.7,3,15l1.1,0.3C5.2,11.3,8.2,8.1,12.1,6.7z"/>
</g>
</svg>
