<?xml version="1.0" encoding="utf-8"?>
<!-- Generator: Adobe Illustrator 23.0.0, SVG Export Plug-In . SVG Version: 6.00 Build 0)  -->
<svg version="1.1" id="Layer_1" xmlns="http://www.w3.org/2000/svg" xmlns:xlink="http://www.w3.org/1999/xlink" x="0px" y="0px"
	 viewBox="0 0 19.2 19.2" style="enable-background:new 0 0 19.2 19.2;" xml:space="preserve">
<style type="text/css">
	.st0{fill:#16487D;}
	.st1{fill:#00467F;}
	.st2{fill:#007E9D;}
	.st3{fill:#1A2A57;}
	.st4{fill:#F2F2F2;}
	.st5{fill:#77C043;}
	.st6{fill:#FFFFFF;}
</style>
<g>
	<path class="st0" d="M14.2,13c1.2-1.5,1.9-3.5,1.8-5.7c-0.3-3.9-3.4-7-7.3-7.3C3.7-0.4-0.4,3.7,0,8.7c0.3,3.9,3.4,7,7.3,7.3
		c2.2,0.2,4.2-0.5,5.7-1.8l4.7,4.7c0.3,0.3,0.9,0.3,1.2,0l0,0c0.3-0.3,0.3-0.9,0-1.2L14.2,13z M8,14.5c-3.6,0-6.5-2.9-6.5-6.5
		c0-3.6,2.9-6.5,6.5-6.5s6.5,2.9,6.5,6.5C14.5,11.6,11.6,14.5,8,14.5z"/>
</g>
</svg>
