<?xml version="1.0" encoding="utf-8"?>
<!-- Generator: Adobe Illustrator 23.0.0, SVG Export Plug-In . SVG Version: 6.00 Build 0)  -->
<svg version="1.1" id="Layer_1" xmlns="http://www.w3.org/2000/svg" xmlns:xlink="http://www.w3.org/1999/xlink" x="0px" y="0px"
	 viewBox="0 0 18.4 19.1" style="enable-background:new 0 0 18.4 19.1;" xml:space="preserve">
<style type="text/css">
	.st0{fill:#16487D;}
	.st1{fill:#00467F;}
	.st2{fill:#007E9D;}
	.st3{fill:#1A2A57;}
	.st4{fill:#F2F2F2;}
	.st5{fill:#77C043;}
	.st6{fill:#FFFFFF;}
</style>
<path class="st6" d="M0,17.2l0,0.1c0,0.2,0.1,0.3,0.3,0.4l0.1,0c0.2,0.1,4.6,1.3,8.8,1.3c4.2,0,8.6-1.2,8.8-1.3l0.1,0
	c0.2,0,0.3-0.2,0.3-0.4l0-0.1c0-0.1,0.1-2.8-1.6-4.3l0,0c-0.3-0.2-1.2-0.8-4.5-2.3l-0.2-0.1l0.1-0.1c0.8-0.9,1.4-2.1,1.6-3.4
	C14,5.9,14,3.2,12.6,1.5c-0.8-1-2-1.5-3.4-1.5C7.8,0,6.6,0.5,5.8,1.5C4.4,3.2,4.4,5.9,4.6,7.1c0.2,1.3,0.8,2.5,1.6,3.4l0.1,0.1
	l-0.2,0.1c-3.2,1.4-4.2,2-4.5,2.3C-0.1,14.4,0,17.1,0,17.2z M5.7,6.9c-0.1-0.8-0.2-3.2,1-4.7c0.6-0.7,1.4-1,2.5-1s1.9,0.3,2.5,1
	c1.2,1.4,1.1,3.9,1,4.7C12.2,9.5,10.3,11,9.2,11S6.2,9.5,5.7,6.9z M2.4,13.8L2.4,13.8c0.5-0.4,2.8-1.5,4.8-2.3l0.1,0l0.1,0
	c0.6,0.4,1.3,0.6,1.9,0.6c0.6,0,1.2-0.2,1.9-0.6l0.1,0l0.1,0c2,0.9,4.3,2,4.7,2.3l0.1,0.1c0.9,0.7,1.2,2.1,1.2,2.8l0,0.1l-0.1,0
	c-1.3,0.3-4.7,1.1-7.9,1.1c-3.2,0-6.6-0.8-7.9-1.1l-0.1,0l0-0.1C1.3,15.9,1.5,14.6,2.4,13.8z"/>
</svg>
