<?xml version="1.0" encoding="utf-8"?>
<!-- Generator: Adobe Illustrator 23.0.0, SVG Export Plug-In . SVG Version: 6.00 Build 0)  -->
<svg version="1.1" id="Layer_1" xmlns="http://www.w3.org/2000/svg" xmlns:xlink="http://www.w3.org/1999/xlink" x="0px" y="0px"
	 viewBox="0 0 17.2 19.6" style="enable-background:new 0 0 17.2 19.6;" xml:space="preserve">
<style type="text/css">
	.st0{fill:#16487D;}
	.st1{fill:#00467F;}
	.st2{fill:#007E9D;}
	.st3{fill:#1A2A57;}
	.st4{fill:#F2F2F2;}
	.st5{fill:#77C043;}
	.st6{fill:#FFFFFF;}
</style>
<g>
	<path class="st0" d="M10.3,19.6c-0.1,0-0.2,0-0.3-0.1l-3.4-1.4c-0.3-0.1-0.5-0.4-0.5-0.7V7.9L0.2,1.3C0,1.1-0.1,0.8,0.1,0.5
		C0.2,0.2,0.5,0,0.8,0h15.6c0.3,0,0.6,0.2,0.7,0.5c0.1,0.3,0.1,0.6-0.1,0.9l-5.9,6.5v10.9c0,0.3-0.1,0.5-0.4,0.7
		C10.6,19.6,10.4,19.6,10.3,19.6z M7,17.3l3.1,1.3V7.5l5.9-6.6h-15L7,7.5V17.3z"/>
</g>
</svg>
